<?xml version="1.0" standalone="no"?>
<!DOCTYPE svg PUBLIC "-//W3C//DTD SVG 20010904//EN"
 "http://www.w3.org/TR/2001/REC-SVG-20010904/DTD/svg10.dtd">
<svg version="1.0" xmlns="http://www.w3.org/2000/svg"
 width="350.000000pt" height="350.000000pt" viewBox="0 0 350.000000 350.000000"
 preserveAspectRatio="xMidYMid meet">

<g transform="translate(0.000000,350.000000) scale(0.100000,-0.100000)"
fill="#000000" stroke="none">
<path d="M3263 3117 l-43 -31 0 -278 c0 -222 3 -277 13 -271 76 48 87 59 87
87 l0 28 -34 -26 c-19 -14 -39 -26 -45 -26 -7 0 -11 36 -11 99 l0 100 35 27
c23 17 35 35 35 50 0 27 -12 31 -30 9 -7 -8 -19 -15 -26 -15 -11 0 -14 19 -14
82 l0 82 41 36 c29 25 40 41 38 57 -4 21 -5 20 -46 -10z"/>
<path d="M3117 3008 c-47 -35 -57 -47 -57 -71 0 -29 1 -29 18 -14 10 10 22 17
25 17 4 0 7 -113 7 -251 0 -164 3 -248 10 -244 6 4 10 103 10 264 l0 258 25
13 c18 9 25 22 25 42 0 15 -1 28 -3 28 -1 0 -28 -19 -60 -42z"/>
<path d="M3000 2650 c0 -180 4 -280 10 -280 6 0 10 100 10 280 0 180 -4 280
-10 280 -6 0 -10 -100 -10 -280z"/>
<path d="M2891 2839 c-26 -42 -44 -149 -35 -207 5 -38 15 -55 48 -85 39 -37
41 -41 40 -95 -1 -58 -25 -122 -46 -122 -6 0 -20 8 -30 17 -19 17 -19 16 -16
-21 2 -24 10 -43 21 -50 43 -26 87 79 87 209 0 76 -12 106 -51 129 -16 9 -32
28 -35 42 -18 73 24 175 60 144 14 -11 16 -9 16 17 0 28 -15 53 -32 53 -5 0
-17 -14 -27 -31z"/>
<path d="M2733 2728 l-33 -23 0 -277 c0 -153 3 -278 6 -278 3 0 19 9 35 21 50
35 72 92 77 200 4 86 2 99 -15 116 -17 17 -18 23 -7 54 15 42 18 163 4 190
-14 25 -28 24 -67 -3z m59 -64 c16 -57 -12 -153 -52 -174 -19 -10 -20 -7 -20
84 0 87 2 96 22 110 29 21 40 16 50 -20z m10 -239 c19 -69 -14 -179 -61 -205
-21 -10 -21 -9 -21 99 0 103 1 111 23 126 31 21 49 15 59 -20z"/>
<path d="M2603 2637 l-43 -31 0 -278 c0 -221 3 -278 13 -272 49 29 87 68 87
90 l0 25 -37 -26 c-21 -14 -41 -25 -45 -25 -5 0 -8 45 -8 99 l0 100 35 27 c23
17 35 35 35 50 0 27 -12 31 -30 9 -7 -8 -19 -15 -26 -15 -11 0 -14 19 -14 82
l0 82 41 36 c29 25 40 41 38 57 -4 21 -5 20 -46 -10z"/>
<path d="M2511 2570 c-2 -6 -31 -478 -31 -504 0 -11 -2 -17 -4 -15 -2 2 -12
104 -22 227 -10 122 -21 222 -26 222 -4 0 -8 -6 -8 -12 0 -7 -7 -92 -15 -188
-8 -96 -14 -200 -13 -230 1 -47 22 174 28 295 l2 40 8 -40 c4 -22 13 -118 20
-212 10 -131 17 -173 27 -173 8 0 13 13 13 36 0 19 7 143 16 275 8 132 13 249
11 262 -2 12 -5 20 -6 17z"/>
<path d="M2337 2430 c-11 -22 26 -522 38 -524 6 0 11 24 12 54 1 30 -1 46 -5
35 -3 -11 -13 86 -22 215 -9 129 -19 228 -23 220z"/>
<path d="M2220 2120 l-5 -245 -33 165 c-66 326 -72 323 -72 -40 0 -192 3 -280
11 -280 7 0 9 73 7 235 -2 129 0 231 3 227 3 -4 23 -93 45 -199 21 -106 42
-189 46 -185 5 5 7 134 6 288 l-3 279 -5 -245z"/>
<path d="M2067 2243 c-3 -4 -11 -122 -18 -262 -7 -139 -16 -245 -20 -235 -4
11 -12 91 -18 179 -15 206 -22 256 -32 249 -5 -3 -9 -33 -8 -67 1 -41 3 -54 8
-37 4 14 12 -45 19 -145 18 -234 23 -278 34 -267 8 8 50 583 43 590 -2 2 -5 0
-8 -5z"/>
<path d="M1888 2113 c-3 -4 3 -114 13 -243 10 -129 18 -248 18 -264 1 -21 4
-27 12 -19 10 10 40 330 37 413 -1 47 -26 -222 -27 -299 -2 -96 -12 -24 -26
189 -8 123 -17 225 -19 227 -2 2 -6 1 -8 -4z"/>
<path d="M1776 2041 c-70 -77 -86 -517 -21 -571 23 -19 52 12 70 74 39 131 39
433 0 492 -19 29 -27 30 -49 5z m60 -138 c8 -69 -1 -265 -16 -314 -5 -20 -19
-44 -29 -53 -19 -17 -20 -17 -38 10 -15 24 -18 50 -18 184 0 159 10 214 44
253 15 18 16 18 33 -2 9 -12 20 -47 24 -78z"/>
<path d="M1538 1859 l-28 -21 2 -281 c1 -155 4 -227 5 -161 3 104 6 124 23
139 18 16 19 16 29 -22 5 -21 15 -66 22 -100 6 -35 16 -63 20 -63 13 0 11 16
-10 122 -18 87 -19 98 -4 139 19 55 28 183 16 229 -11 42 -36 49 -75 19z m60
-130 c-3 -81 -25 -130 -62 -137 -14 -3 -16 9 -16 97 0 96 1 100 26 120 43 34
57 13 52 -80z"/>
<path d="M1447 1790 c-3 -8 -8 -121 -9 -250 -2 -185 -6 -241 -18 -265 -18 -35
-44 -43 -56 -18 -4 10 -11 119 -14 243 l-7 225 1 -257 c1 -235 3 -259 19 -275
18 -17 19 -17 42 10 40 45 47 91 52 327 5 226 3 289 -10 260z"/>
<path d="M1206 1621 c-26 -29 -44 -101 -57 -223 -16 -168 10 -358 50 -358 16
0 43 40 57 86 38 127 38 431 -1 490 -19 29 -27 30 -49 5z m54 -107 c23 -98 5
-337 -28 -383 -48 -66 -67 -13 -67 184 0 153 10 210 43 248 13 15 18 16 30 4
7 -8 18 -32 22 -53z"/>
<path d="M1095 1403 c-10 -82 -21 -154 -25 -161 -3 -7 -15 43 -25 113 -12 81
-21 123 -28 116 -6 -6 0 -62 17 -158 17 -99 26 -185 26 -256 0 -65 4 -107 10
-107 6 0 10 48 10 125 0 103 20 308 45 448 2 15 1 27 -4 27 -4 0 -16 -66 -26
-147z"/>
<path d="M868 1377 c-46 -34 -58 -48 -58 -70 0 -27 1 -28 22 -13 12 9 26 16
30 16 4 0 9 -111 11 -247 l2 -248 3 257 2 257 30 23 c27 19 43 69 23 67 -5 0
-34 -19 -65 -42z"/>
<path d="M708 1257 l-28 -23 2 -279 c1 -154 4 -226 5 -160 3 93 7 123 20 137
9 10 20 15 23 11 4 -5 15 -50 25 -100 10 -51 21 -93 26 -93 13 0 11 16 -11
123 -18 88 -18 99 -4 133 19 45 29 187 17 234 -11 43 -37 49 -75 17z m62 -113
c0 -34 -5 -75 -11 -91 -13 -34 -49 -74 -60 -67 -5 3 -9 50 -9 104 0 95 1 99
26 119 39 31 54 13 54 -65z"/>
<path d="M570 1158 c0 -2 -14 -136 -30 -298 -34 -338 -33 -313 -22 -306 5 3
12 45 15 93 6 82 9 90 37 116 17 15 35 25 39 23 4 -3 11 -35 14 -72 6 -64 12
-83 22 -73 2 3 -9 117 -25 254 -17 138 -30 253 -30 258 0 6 -20 11 -20 5z m26
-191 c13 -121 13 -122 -9 -139 -35 -27 -40 -22 -34 35 4 28 9 94 13 145 4 51
9 90 12 87 3 -3 11 -60 18 -128z"/>
<path d="M438 1057 c-45 -33 -57 -48 -57 -70 -1 -27 0 -28 21 -13 12 9 26 16
30 16 4 0 9 -111 11 -247 l2 -248 3 257 2 257 30 23 c18 13 30 31 30 45 0 13
-3 23 -7 22 -5 0 -34 -19 -65 -42z"/>
<path d="M291 949 c-25 -41 -44 -149 -36 -207 5 -39 14 -54 48 -84 40 -36 42
-40 41 -95 -1 -95 -44 -152 -81 -105 -12 15 -13 13 -11 -22 2 -25 10 -43 21
-50 42 -26 87 78 87 203 0 76 -14 113 -50 135 -17 9 -33 28 -36 42 -18 73 24
175 60 144 14 -11 16 -9 16 17 0 28 -15 53 -32 53 -5 0 -17 -14 -27 -31z"/>
</g>
</svg>
